<svg
    xmlns="http://www.w3.org/2000/svg"
    width="20"
    height="20"
    viewBox="0 0 20 20"
    fill="none">

    <!-- Camera body with lens and flash cutouts, scaled up to fill the 20x20 canvas -->
    <path
        d="M2.5 3H6.25L7.05 1.85C7.3 1.45 7.75 1.15 8.3 1.15H11.7C12.25 1.15 12.7 1.45 12.95 1.85L13.75 3H17.5C18.74 3 19.75 4.01 19.75 5.25V14.75C19.75 15.99 18.74 17 17.5 17H2.5C1.26 17 0.25 15.99 0.25 14.75V5.25C0.25 4.01 1.26 3 2.5 3Z M10 13C11.657 13 13 11.657 13 10C13 8.343 11.657 7 10 7C8.343 7 7 8.343 7 10C7 11.657 8.343 13 10 13Z M16 6C16.4 6 16.72 5.68 16.72 5.28C16.72 4.88 16.4 4.56 16 4.56C15.6 4.56 15.28 4.88 15.28 5.28C15.28 5.68 15.6 6 16 6Z"
        fill="white" fill-rule="evenodd" />
</svg>
