<svg
    xmlns="http://www.w3.org/2000/svg"
    width="20"
    height="20"
    viewBox="0 0 20 20"
    fill="none">

    <!-- Camera body with lens and flash cutouts -->
    <path
        d="M3 3.5H6L6.7 2.5C6.95 2.1 7.35 1.8 7.85 1.8H12.15C12.65 1.8 13.05 2.1 13.3 2.5L14 3.5H17C18.1 3.5 19 4.4 19 5.5V14.5C19 15.6 18.1 16.5 17 16.5H3C1.9 16.5 1 15.6 1 14.5V5.5C1 4.4 1.9 3.5 3 3.5Z M10 12.8C11.546 12.8 12.8 11.546 12.8 10C12.8 8.454 11.546 7.2 10 7.2C8.454 7.2 7.2 8.454 7.2 10C7.2 11.546 8.454 12.8 10 12.8Z M15.75 5.75C16.1 5.75 16.38 5.47 16.38 5.12C16.38 4.77 16.1 4.49 15.75 4.49C15.4 4.49 15.12 4.77 15.12 5.12C15.12 5.47 15.4 5.75 15.75 5.75Z"
        fill="white" fill-rule="evenodd" />
</svg>
